# xmcd
#
# Track frame offsets:
#	150
#	22357
#	38761
#	54228
#	72683
#	89686
#	109498
#	125644
#	141825
#	160222
#	178838
#	198974
#	216361
#	237285
#	255863
#
# Disc length: 3647 seconds
#
# Revision: 1
# Processed by: cddbd v1.5.1PL0 Copyright (c) Steve Scherf et al.
# Submitted via: audiograbber 1.83.01
#
DISCID=e60e3d0f
DTITLE=Various Artist - R&B Коктейль.
DYEAR=1900
DGENRE=
TTITLE0=India Arie. - Brown Skin.
TTITLE1=Res. - I've Known The Garden.
TTITLE2=Mary J. Blige feat. Common. - Dance For Me.
TTITLE3=Jerzee Monet. - Most High.
TTITLE4=Ashanti. - Foolish.
TTITLE5=Brain McKnight. - What's It Gonna Be.
TTITLE6=Mya. - How You Gonna Tell Me.
TTITLE7=Cunnie Williams. - Hold On.
TTITLE8=Erykah Badu. - Bag Lady.
TTITLE9=Musiq. - Halfcrazy.
TTITLE10=K-Ci and Jojo. - I Wanna Do You Right.
TTITLE11=Femi Kuti feat. Jaguar Wright. - Fight To Win.
TTITLE12=Ms. Dynamite. - It Takes More.
TTITLE13=Prophet Jones. - Lifetime.
TTITLE14=Gabrielle. - If You Love Me.
EXTD=
EXTT0=
EXTT1=
EXTT2=
EXTT3=
EXTT4=
EXTT5=
EXTT6=
EXTT7=
EXTT8=
EXTT9=
EXTT10=
EXTT11=
EXTT12=
EXTT13=
EXTT14=
PLAYORDER=
